<svg xmlns="http://www.w3.org/2000/svg" xmlns:xlink="http://www.w3.org/1999/xlink" id="Laag_1" x="0px" y="0px" viewBox="0 0 160 40" style="enable-background:new 0 0 160 40;" xml:space="preserve">
<style type="text/css">
	.st0{fill:#4EA8DE;}
	.st1{fill:#FFFFFF;}
	.st2{fill:#004F86;}
	.st3{font-family:'Montserrat-SemiBold';}
	.st4{font-size:24.1845px;}
	.st5{fill:none;stroke:url(#SVGID_1_);stroke-miterlimit:10;}
	.st6{fill:none;stroke:url(#SVGID_2_);stroke-miterlimit:10;}
	.st7{fill:none;stroke:url(#SVGID_3_);stroke-miterlimit:10;}
	.st8{fill:none;stroke:url(#SVGID_4_);stroke-miterlimit:10;}
</style>
<g>
	<g>
		<path class="st0" d="M29.5,11.7l-1.5,3.3c-1.8-1.1-4-1.8-5.4-1.8c-1.3,0-2.2,0.5-2.2,1.4c0,3.2,9.3,1.4,9.3,7.7    c0,3.4-3,5.2-6.8,5.2c-2.9,0-5.7-1.1-7.7-2.8l1.6-3.2c1.8,1.6,4.3,2.6,6.2,2.6c1.6,0,2.6-0.6,2.6-1.7c0-3.3-9.3-1.4-9.3-7.5    c0-3.2,2.7-5.1,6.7-5.1C25.3,9.8,27.7,10.5,29.5,11.7z"></path>
		<path class="st0" d="M40.4,9.8c-5.3,0-9.4,3.8-9.4,8.8c0,5,4,8.9,9.4,8.9s9.4-3.9,9.4-8.9C49.8,13.6,45.7,9.8,40.4,9.8z     M40.5,24.1c-2.9,0-5.4-2.4-5.4-5.4s2.4-5.4,5.4-5.4c2.9,0,5.3,2.3,5.3,5.4S43.4,24.1,40.5,24.1z"></path>
		<path class="st0" d="M45.7,18.7c0,3.1-2.4,5.4-5.3,5.4c-2.9,0-5.4-2.4-5.4-5.4s2.4-5.4,5.4-5.4C43.4,13.3,45.7,15.6,45.7,18.7z"></path>
		<path class="st0" d="M65.3,11.7l-1.5,3.3c-1.8-1.1-4-1.8-5.4-1.8c-1.3,0-2.2,0.5-2.2,1.4c0,3.2,9.3,1.4,9.3,7.7    c0,3.4-3,5.2-6.8,5.2c-2.9,0-5.7-1.1-7.7-2.8l1.6-3.2c1.8,1.6,4.3,2.6,6.2,2.6c1.6,0,2.6-0.6,2.6-1.7c0-3.3-9.3-1.4-9.3-7.5    c0-3.2,2.7-5.1,6.7-5.1C61.2,9.8,63.6,10.5,65.3,11.7z"></path>
	</g>
	<path class="st1" d="M46.8,17.9c0-0.2-0.2-0.3-0.4-0.3c-0.6,0-1.1-0.3-1.3-0.9c-0.2-0.5-0.1-1.2,0.4-1.6c0.1-0.1,0.2-0.3,0-0.5   c-0.3-0.4-0.6-0.7-1-1c-0.1-0.1-0.4-0.1-0.5,0c-0.4,0.4-1.1,0.6-1.6,0.4c-0.5-0.2-0.9-0.8-0.9-1.4c0-0.2-0.1-0.4-0.3-0.4   c-0.5-0.1-1-0.1-1.4,0c-0.2,0-0.3,0.2-0.3,0.4c0,0.6-0.3,1.1-0.9,1.4c-0.5,0.2-1.2,0.1-1.6-0.4c-0.1-0.1-0.3-0.2-0.5,0   c-0.4,0.3-0.7,0.6-1,1c-0.1,0.1-0.1,0.4,0,0.5c0.4,0.4,0.6,1,0.4,1.6c-0.2,0.5-0.8,0.9-1.4,0.9c-0.2,0-0.3,0.1-0.4,0.3   c-0.1,0.5-0.1,1,0,1.5c0,0.2,0.2,0.3,0.4,0.3c0.6,0,1.1,0.3,1.3,0.9c0.2,0.5,0.1,1.2-0.4,1.6c-0.1,0.1-0.2,0.3,0,0.5   c0.3,0.4,0.6,0.7,1,1c0.1,0.1,0.4,0.1,0.5,0c0.4-0.4,1.1-0.6,1.6-0.4c0.6,0.2,0.9,0.8,0.9,1.4c0,0.2,0.1,0.4,0.3,0.4   c0.2,0,0.5,0,0.7,0c0.2,0,0.5,0,0.7,0c0.2,0,0.3-0.2,0.3-0.4c0-0.6,0.3-1.1,0.9-1.4c0.5-0.2,1.2-0.1,1.6,0.4c0.1,0.1,0.3,0.2,0.5,0   c0.4-0.3,0.7-0.6,1-1c0.1-0.1,0.1-0.4,0-0.5c-0.4-0.4-0.6-1-0.4-1.6c0.2-0.5,0.7-0.9,1.3-0.9l0.1,0c0.2,0,0.4-0.1,0.4-0.3   C46.8,18.9,46.8,18.4,46.8,17.9z M40.4,22.3c-2,0-3.7-1.6-3.7-3.7s1.6-3.7,3.7-3.7c2,0,3.7,1.6,3.7,3.7c0,0.7-0.2,1.3-0.5,1.9   L42,18.9c0.1-0.3,0.2-0.6,0.2-0.9c0-0.6-0.2-1.2-0.7-1.6c-0.4-0.4-1-0.7-1.6-0.7c-0.2,0-0.4,0-0.6,0.1c-0.1,0-0.2,0.1-0.2,0.2   c0,0.1,0,0.2,0.1,0.2c0,0,0.8,0.8,1.1,1.1c0,0,0,0.1,0,0.1l0,0c0,0.3-0.1,0.6-0.1,0.8c0,0,0,0,0,0c0,0,0,0,0,0   c-0.1,0-0.5,0.1-0.8,0.1l0,0l0,0c0,0,0,0,0,0c0,0-0.1,0-0.1-0.1c-0.3-0.3-1-1-1-1c-0.1-0.1-0.1-0.1-0.2-0.1c-0.1,0-0.2,0.1-0.2,0.2   c-0.2,0.8,0,1.6,0.6,2.2c0.4,0.4,1,0.7,1.6,0.7c0.3,0,0.6-0.1,0.9-0.2l1.6,1.6C41.8,22.1,41.1,22.3,40.4,22.3z"></path>
	<text transform="matrix(1 0 0 1 69.8758 27.548)" class="st2 st3 st4">Direct</text>
	<linearGradient id="SVGID_1_" gradientUnits="userSpaceOnUse" x1="58.1869" y1="6.0838" x2="144.948" y2="6.0838">
		<stop offset="0" style="stop-color:#2B7DA0"></stop>
		<stop offset="1" style="stop-color:#2B7DA0"></stop>
	</linearGradient>
	<line class="st5" x1="58.2" y1="6.1" x2="144.9" y2="6.1"></line>
	<linearGradient id="SVGID_2_" gradientUnits="userSpaceOnUse" x1="58.1869" y1="31.2569" x2="144.948" y2="31.2569">
		<stop offset="0" style="stop-color:#2B7DA0"></stop>
		<stop offset="1" style="stop-color:#2B7DA0"></stop>
	</linearGradient>
	<line class="st6" x1="58.2" y1="31.3" x2="144.9" y2="31.3"></line>
	<linearGradient id="SVGID_3_" gradientUnits="userSpaceOnUse" x1="57.6869" y1="7.0156" x2="58.6869" y2="7.0156">
		<stop offset="0" style="stop-color:#2B7DA0"></stop>
		<stop offset="1" style="stop-color:#2B7DA0"></stop>
	</linearGradient>
	<line class="st7" x1="58.2" y1="6" x2="58.2" y2="8.1"></line>
	<linearGradient id="SVGID_4_" gradientUnits="userSpaceOnUse" x1="57.6869" y1="30.3301" x2="58.6869" y2="30.3301">
		<stop offset="0" style="stop-color:#2B7DA0"></stop>
		<stop offset="1" style="stop-color:#2B7DA0"></stop>
	</linearGradient>
	<line class="st8" x1="58.2" y1="29.3" x2="58.2" y2="31.4"></line>
</g>
</svg>